<svg version="1" xmlns="http://www.w3.org/2000/svg" width="682.667" height="682.667" viewBox="0 0 512.000000 512.000000"><path d="M319.2 98c-49.1 6.2-90 38.7-106.6 84.8-9.5 26.4-9.5 60 0 86.4 13 36.1 42.1 65.2 78.2 78.2 26.4 9.5 60 9.5 86.4 0 36.1-13 65.2-42.1 78.2-78.2 9.5-26.4 9.5-60 0-86.4-13-36.1-42.1-65.2-78.2-78.2-16.2-5.8-41.4-8.7-58-6.6zM114.5 251.1c-29.6 4.2-55.3 25.6-64 53.1-8.6 27.2-3.6 53.8 14.3 76.2 15.7 19.6 44.4 31 69.7 27.7 26.3-3.5 45.8-16.4 59.8-39.3 7.8-12.9 11.8-32.7 9.8-48.3-5-37.4-31.5-64.3-68.5-69.4-8.7-1.2-12.5-1.2-21.1 0z"/></svg>