
<svg width="175px" height="19px" viewBox="0 0 175 19" version="1.1" xmlns="http://www.w3.org/2000/svg" xmlns:xlink="http://www.w3.org/1999/xlink">
    <!-- Generator: Sketch 50.2 (55047) - http://www.bohemiancoding.com/sketch -->
    <desc>Created with Sketch.</desc>
    <defs></defs>
    <g id="Desktop" stroke="none" stroke-width="1" fill="none" fill-rule="evenodd">
        <g id="100-Projects" transform="translate(-9.000000, -22.000000)" fill="#FFFFFF">
            <path d="M49,37.7371868 L49,23.6386114 L59.5260401,23.6386114 L59.5260401,25.8943835 L51.4850344,25.8943835 L51.4850344,29.7412805 L58.6168812,29.7412805 L58.6168812,31.9970526 L51.4850344,31.9970526 L51.4850344,37.7371868 L49,37.7371868 Z M62.1120922,37.7371868 L62.1120922,23.0343868 L64.5567195,23.0343868 L64.5567195,37.7371868 L62.1120922,37.7371868 Z M72.8199641,37.9788767 C69.5671955,37.9788767 67.1629752,35.5015556 67.1629752,32.4804323 L67.1629752,32.4401506 C67.1629752,29.3988865 69.587399,26.8812838 72.8603711,26.8812838 C76.1333433,26.8812838 78.5375636,29.3586049 78.5375636,32.399869 L78.5375636,32.4401506 C78.5375636,35.4612739 76.1131398,37.9788767 72.8199641,37.9788767 Z M72.8603711,35.8439496 C74.8403173,35.8439496 76.0929362,34.3132471 76.0929362,32.4804323 L76.0929362,32.4401506 C76.0929362,30.5670542 74.7392996,29.0162109 72.8199641,29.0162109 C70.8602215,29.0162109 69.6076025,30.5469134 69.6076025,32.399869 L69.6076025,32.4401506 C69.6076025,34.2931063 70.9612391,35.8439496 72.8603711,35.8439496 Z M84.0935349,37.9587359 C82.0933852,37.9587359 80.3154744,36.810709 80.3154744,34.6757819 L80.3154744,34.6355002 C80.3154744,32.3394465 82.1135887,31.2115605 84.7198444,31.2115605 C85.9118527,31.2115605 86.7604011,31.3928279 87.5887459,31.6546586 L87.5887459,31.3928279 C87.5887459,29.8822663 86.6593834,29.0766334 84.9420832,29.0766334 C83.7500748,29.0766334 82.8611194,29.3384641 81.8913499,29.7412805 L81.2448369,27.8279024 C82.4166417,27.304241 83.568243,26.9618471 85.2653397,26.9618471 C86.8614187,26.9618471 88.0534271,27.3848043 88.8009578,28.1501556 C89.5888955,28.9155068 89.9525591,30.0433928 89.9525591,31.4331095 L89.9525591,37.7371868 L87.5685424,37.7371868 L87.5685424,36.4078926 C86.8412152,37.2739479 85.730021,37.9587359 84.0935349,37.9587359 Z M84.780455,36.1863435 C86.3967375,36.1863435 87.6291529,35.2598657 87.6291529,33.9104307 L87.6291529,33.1853611 C87.0028435,32.9436712 86.1744987,32.7624038 85.2047291,32.7624038 C83.6288536,32.7624038 82.6994912,33.4270509 82.6994912,34.5347961 L82.6994912,34.5750778 C82.6994912,35.6022597 83.6086501,36.1863435 84.780455,36.1863435 Z M96.3570787,37.9184542 C94.5589644,37.9184542 93.2861419,37.1329622 93.2861419,34.7966268 L93.2861419,29.1974783 L91.9325052,29.1974783 L91.9325052,27.1028328 L93.2861419,27.1028328 L93.2861419,24.1824136 L95.7307692,24.1824136 L95.7307692,27.1028328 L98.5996708,27.1028328 L98.5996708,29.1974783 L95.7307692,29.1974783 L95.7307692,34.4139512 C95.7307692,35.3605698 96.215654,35.7432455 97.0439988,35.7432455 C97.5894942,35.7432455 98.0743789,35.6224005 98.5592637,35.3807107 L98.5592637,37.374652 C97.9531577,37.717046 97.2864412,37.9184542 96.3570787,37.9184542 Z M101.22613,37.7371868 L101.22613,27.1028328 L103.670757,27.1028328 L103.670757,37.7371868 L101.22613,37.7371868 Z M106.862915,37.7371868 L106.862915,27.1028328 L109.307543,27.1028328 L109.307543,28.7342394 C109.994463,27.7473391 110.984436,26.8812838 112.641125,26.8812838 C115.045346,26.8812838 116.439389,28.4925495 116.439389,30.9497298 L116.439389,37.7371868 L113.994762,37.7371868 L113.994762,31.6949402 C113.994762,30.0433928 113.166417,29.0967742 111.711763,29.0967742 C110.297516,29.0967742 109.307543,30.0836745 109.307543,31.7352219 L109.307543,37.7371868 L106.862915,37.7371868 Z M124.136935,41 C122.379228,41 120.742742,40.5569019 119.368902,39.7311282 L120.27806,37.8983134 C121.429662,38.6032422 122.62167,39.0261994 124.076324,39.0261994 C126.258306,39.0261994 127.450314,37.8983134 127.450314,35.7633863 L127.450314,34.9376126 C126.561359,36.0856394 125.450165,36.8912723 123.692457,36.8912723 C121.187219,36.8912723 118.84361,35.0383167 118.84361,31.9164893 L118.84361,31.8762076 C118.84361,28.7342394 121.207423,26.8812838 123.692457,26.8812838 C125.490572,26.8812838 126.601766,27.7070575 127.430111,28.6939578 L127.430111,27.1028328 L129.874738,27.1028328 L129.874738,35.5619781 C129.874738,37.3545112 129.410057,38.6838055 128.521101,39.5700016 C127.551332,40.5367611 126.056271,41 124.136935,41 Z M124.33897,34.8167676 C126.036067,34.8167676 127.470518,33.6284591 127.470518,31.8963485 L127.470518,31.8560668 C127.470518,30.1239561 126.036067,28.9356476 124.33897,28.9356476 C122.641874,28.9356476 121.308441,30.1038153 121.308441,31.8560668 L121.308441,31.8963485 C121.308441,33.6284591 122.662077,34.8167676 124.33897,34.8167676 Z M139.289584,37.7371868 L139.289584,23.6386114 L144.562706,23.6386114 C149.007483,23.6386114 152.07842,26.6798756 152.07842,30.6476175 L152.07842,30.6878991 C152.07842,34.6556411 149.007483,37.7371868 144.562706,37.7371868 L139.289584,37.7371868 Z M144.562706,25.8943835 L141.774618,25.8943835 L141.774618,35.4814148 L144.562706,35.4814148 C147.532625,35.4814148 149.472164,33.4874734 149.472164,30.7281808 L149.472164,30.6878991 C149.472164,27.9286065 147.532625,25.8943835 144.562706,25.8943835 Z M159.876983,37.9788767 C156.624214,37.9788767 154.219994,35.5015556 154.219994,32.4804323 L154.219994,32.4401506 C154.219994,29.3988865 156.644418,26.8812838 159.91739,26.8812838 C163.190362,26.8812838 165.594582,29.3586049 165.594582,32.399869 L165.594582,32.4401506 C165.594582,35.4612739 163.170159,37.9788767 159.876983,37.9788767 Z M159.91739,35.8439496 C161.897336,35.8439496 163.149955,34.3132471 163.149955,32.4804323 L163.149955,32.4401506 C163.149955,30.5670542 161.796318,29.0162109 159.876983,29.0162109 C157.91724,29.0162109 156.664621,30.5469134 156.664621,32.399869 L156.664621,32.4401506 C156.664621,34.2931063 158.018258,35.8439496 159.91739,35.8439496 Z M171.655642,37.9184542 C169.857528,37.9184542 168.584705,37.1329622 168.584705,34.7966268 L168.584705,29.1974783 L167.231069,29.1974783 L167.231069,27.1028328 L168.584705,27.1028328 L168.584705,24.1824136 L171.029333,24.1824136 L171.029333,27.1028328 L173.898234,27.1028328 L173.898234,29.1974783 L171.029333,29.1974783 L171.029333,34.4139512 C171.029333,35.3605698 171.514217,35.7432455 172.342562,35.7432455 C172.888057,35.7432455 173.372942,35.6224005 173.857827,35.3807107 L173.857827,37.374652 C173.251721,37.717046 172.585004,37.9184542 171.655642,37.9184542 Z M180.040108,37.9385951 C178.524843,37.9385951 176.84795,37.3947929 175.514517,36.3474701 L176.605507,34.6959227 C177.777312,35.5619781 179.009728,36.0050761 180.100718,36.0050761 C181.151302,36.0050761 181.757408,35.5619781 181.757408,34.8570493 L181.757408,34.8167676 C181.757408,33.9909939 180.62601,33.7090224 179.373391,33.3263468 C177.797516,32.8832487 176.039808,32.2387424 176.039808,30.2045194 L176.039808,30.1642378 C176.039808,28.1501556 177.716702,26.9215654 179.838072,26.9215654 C181.171506,26.9215654 182.62616,27.3848043 183.757558,28.1300147 L182.787788,29.8621254 C181.757408,29.2377599 180.666417,28.8550843 179.777462,28.8550843 C178.827896,28.8550843 178.2824,29.2981824 178.2824,29.9024071 L178.2824,29.9426887 C178.2824,30.7281808 179.434002,31.0504339 180.686621,31.4532504 C182.242293,31.9366301 184,32.6415589 184,34.554937 L184,34.5952186 C184,36.8308498 182.262496,37.9385951 180.040108,37.9385951 Z M102.371818,25.9474374 C101.555371,25.9474374 100.893511,25.287631 100.893511,24.4737187 C100.893511,23.6598063 101.555371,23 102.371818,23 C103.188265,23 103.850125,23.6598063 103.850125,24.4737187 C103.850125,25.287631 103.188265,25.9474374 102.371818,25.9474374 Z M18,35.5 C18,37.9854436 15.9852037,40 13.5001545,40 C11.0147963,40 9,37.9854436 9,35.5 C9,33.0145564 11.0147963,31 13.5001545,31 C15.9852037,31 18,33.0145564 18,35.5 Z M33,29.5 C33,33.6422328 29.6422328,37 25.5003182,37 C21.3577672,37 18,33.6422328 18,29.5 C18,25.3577672 21.3577672,22 25.5003182,22 C29.6422328,22 33,25.3577672 33,29.5 Z" id="Combined-Shape"></path>
        </g>
    </g>
</svg>
