<svg width="175" height="19" xmlns="http://www.w3.org/2000/svg"><path d="M40 15.737V1.64h10.526v2.255h-8.041v3.847h7.132v2.256h-7.132v5.74H40zm13.112 0V1.034h2.445v14.703h-2.445zm10.708.242c-3.253 0-5.657-2.477-5.657-5.499v-.04c0-3.041 2.424-5.559 5.697-5.559s5.678 2.478 5.678 5.519v.04c0 3.021-2.425 5.539-5.718 5.539zm.04-2.135c1.98 0 3.233-1.53 3.233-3.364v-.04c0-1.873-1.354-3.424-3.273-3.424-1.96 0-3.212 1.53-3.212 3.384v.04c0 1.853 1.353 3.404 3.252 3.404zm11.234 2.115c-2 0-3.779-1.148-3.779-3.283v-.04c0-2.297 1.799-3.424 4.405-3.424 1.192 0 2.04.18 2.869.443v-.262c0-1.51-.93-2.316-2.647-2.316-1.192 0-2.08.261-3.05.664l-.647-1.913c1.172-.524 2.323-.866 4.02-.866 1.596 0 2.788.423 3.536 1.188.788.766 1.152 1.893 1.152 3.283v6.304h-2.384v-1.33c-.728.867-1.839 1.552-3.475 1.552zm.686-1.773c1.617 0 2.85-.926 2.85-2.276v-.725c-.627-.241-1.456-.423-2.425-.423-1.576 0-2.506.665-2.506 1.773v.04c0 1.027.91 1.611 2.081 1.611zm11.577 1.732c-1.798 0-3.07-.785-3.07-3.121v-5.6h-1.354V5.103h1.353v-2.92h2.445v2.92H89.6v2.094h-2.87v5.217c0 .947.486 1.33 1.314 1.33.545 0 1.03-.122 1.515-.363v1.994c-.606.342-1.273.543-2.202.543zm4.87-.18V5.102h2.444v10.634h-2.445zm5.636 0V5.102h2.445v1.631c.686-.987 1.676-1.853 3.333-1.853 2.404 0 3.798 1.612 3.798 4.069v6.787h-2.444V9.695c0-1.652-.829-2.598-2.283-2.598-1.414 0-2.404.987-2.404 2.638v6.002h-2.445zM115.137 19c-1.758 0-3.394-.443-4.768-1.269l.91-1.833c1.15.705 2.343 1.128 3.797 1.128 2.182 0 3.374-1.128 3.374-3.263v-.825c-.889 1.148-2 1.953-3.758 1.953-2.505 0-4.848-1.853-4.848-4.975v-.04c0-3.142 2.363-4.995 4.848-4.995 1.799 0 2.91.826 3.738 1.813V5.103h2.445v8.459c0 1.793-.465 3.122-1.354 4.008-.97.967-2.465 1.43-4.384 1.43zm.202-6.183c1.697 0 3.132-1.189 3.132-2.92v-.04c0-1.733-1.435-2.921-3.132-2.921s-3.03 1.168-3.03 2.92v.04c0 1.732 1.353 2.92 3.03 2.92zm14.95 2.92V1.64h5.274c4.444 0 7.515 3.04 7.515 7.009v.04c0 3.968-3.07 7.05-7.515 7.05h-5.273zm5.274-11.843h-2.788v9.587h2.788c2.97 0 4.91-1.994 4.91-4.753v-.04c0-2.76-1.94-4.794-4.91-4.794zm15.314 12.085c-3.253 0-5.657-2.477-5.657-5.499v-.04c0-3.041 2.424-5.559 5.697-5.559s5.678 2.478 5.678 5.519v.04c0 3.021-2.425 5.539-5.718 5.539zm.04-2.135c1.98 0 3.233-1.53 3.233-3.364v-.04c0-1.873-1.354-3.424-3.273-3.424-1.96 0-3.212 1.53-3.212 3.384v.04c0 1.853 1.353 3.404 3.252 3.404zm11.739 2.074c-1.798 0-3.071-.785-3.071-3.121v-5.6h-1.354V5.103h1.354v-2.92h2.444v2.92h2.87v2.094h-2.87v5.217c0 .947.485 1.33 1.314 1.33.545 0 1.03-.122 1.515-.363v1.994c-.606.342-1.273.543-2.202.543zm8.384.02c-1.515 0-3.192-.543-4.525-1.59l1.09-1.652c1.172.866 2.405 1.31 3.496 1.31 1.05 0 1.656-.444 1.656-1.149v-.04c0-.826-1.131-1.108-2.384-1.49-1.575-.444-3.333-1.088-3.333-3.122v-.04c0-2.015 1.677-3.243 3.798-3.243 1.334 0 2.788.463 3.92 1.208l-.97 1.732c-1.03-.624-2.122-1.007-3.01-1.007-.95 0-1.496.443-1.496 1.047v.04c0 .786 1.152 1.108 2.405 1.511 1.555.484 3.313 1.189 3.313 3.102v.04c0 2.236-1.738 3.344-3.96 3.344zM93.372 3.949c-.817 0-1.478-.66-1.478-1.474S92.555 1 93.372 1c.816 0 1.478.66 1.478 1.474s-.662 1.473-1.478 1.473zM9 13.5a4.5 4.5 0 1 1-9 0 4.5 4.5 0 0 1 9 0zm15-6a7.5 7.5 0 1 1-15 0 7.5 7.5 0 0 1 15 0z" fill="#231F20" fill-rule="evenodd"/></svg>
