<svg width="153" height="170" xmlns="http://www.w3.org/2000/svg" xmlns:xlink="http://www.w3.org/1999/xlink"><defs><path id="a" d="M0 169.196h152.528V0H0z"/></defs><g fill="none" fill-rule="evenodd"><path d="M58.258 85.296c0 16.088-13.042 29.128-29.128 29.128-16.088 0-29.13-13.04-29.13-29.128s13.042-29.128 29.13-29.128c16.086 0 29.128 13.04 29.128 29.128M152.527 47.134c0 26.032-21.102 47.134-47.132 47.134-26.034 0-47.136-21.102-47.136-47.134S79.36 0 105.395 0c26.03 0 47.132 21.102 47.132 47.134M4.514 150.386h11.368v2.444H7.198v4.168H14.9v2.444H7.198v6.218H4.514z" fill="#231F20"/><path fill="#231F20" d="M18.668 165.66h2.64v-15.928h-2.64zM33.764 159.965v-.042c0-2.03-1.462-3.71-3.536-3.71-2.116 0-3.468 1.658-3.468 3.666v.044c0 2.006 1.462 3.686 3.512 3.686 2.14 0 3.492-1.658 3.492-3.644m-9.644 0v-.042c0-3.296 2.618-6.024 6.152-6.024 3.536 0 6.132 2.684 6.132 5.98v.044c0 3.272-2.618 6-6.176 6-3.512 0-6.108-2.684-6.108-5.958M46.216 161.515v-.786c-.676-.262-1.572-.458-2.62-.458-1.702 0-2.704.72-2.704 1.92v.044c0 1.114.982 1.746 2.246 1.746 1.746 0 3.078-1.004 3.078-2.466m-7.9.83v-.044c0-2.488 1.942-3.71 4.758-3.71 1.286 0 2.204.196 3.098.48v-.284c0-1.636-1.004-2.51-2.858-2.51-1.288 0-2.248.284-3.296.722l-.698-2.074c1.266-.568 2.51-.938 4.342-.938 1.724 0 3.012.458 3.818 1.286.852.83 1.244 2.052 1.244 3.558v6.83H46.15v-1.44c-.786.938-1.986 1.68-3.754 1.68-2.16 0-4.08-1.244-4.08-3.556M52.32 162.475v-6.066h-1.462v-2.27h1.462v-3.164h2.64v3.164h3.098v2.27H54.96v5.65c0 1.026.524 1.442 1.418 1.442.59 0 1.112-.132 1.636-.394v2.16c-.654.372-1.374.59-2.378.59-1.942 0-3.316-.85-3.316-3.382M60.89 165.662h2.64V154.14h-2.64v11.522zm-.11-13.29h2.836v-2.51H60.78v2.51zM66.974 154.14h2.64v1.767c.742-1.068 1.812-2.008 3.6-2.008 2.596 0 4.102 1.746 4.102 4.408v7.354h-2.64v-6.546c0-1.79-.894-2.814-2.464-2.814-1.528 0-2.598 1.068-2.598 2.858v6.502h-2.64V154.14zM89.224 159.333v-.042c0-1.878-1.55-3.166-3.382-3.166-1.834 0-3.274 1.266-3.274 3.166v.042c0 1.876 1.462 3.164 3.274 3.164 1.832 0 3.382-1.288 3.382-3.164m-8.75 8.488l.982-1.986c1.244.764 2.53 1.222 4.102 1.222 2.356 0 3.644-1.222 3.644-3.534v-.896c-.96 1.246-2.16 2.118-4.06 2.118-2.704 0-5.236-2.008-5.236-5.39v-.044c0-3.404 2.554-5.41 5.236-5.41 1.944 0 3.144.894 4.038 1.964v-1.726h2.64v9.166c0 1.942-.502 3.382-1.462 4.342-1.048 1.048-2.662 1.55-4.734 1.55-1.9 0-3.666-.482-5.15-1.376M104.662 152.83v10.387h3.012c3.206 0 5.3-2.16 5.3-5.15v-.042c0-2.99-2.094-5.194-5.3-5.194h-3.012zm-2.684-2.443h5.696c4.798 0 8.116 3.294 8.116 7.594v.044c0 4.298-3.318 7.636-8.116 7.636h-5.696v-15.274zM126.867 159.965v-.042c0-2.03-1.462-3.71-3.536-3.71-2.116 0-3.468 1.658-3.468 3.666v.044c0 2.006 1.462 3.686 3.512 3.686 2.138 0 3.492-1.658 3.492-3.644m-9.644 0v-.042c0-3.296 2.616-6.024 6.152-6.024 3.534 0 6.132 2.684 6.132 5.98v.044c0 3.272-2.618 6-6.176 6-3.512 0-6.108-2.684-6.108-5.958M132.292 162.475v-6.066h-1.462v-2.27h1.462v-3.164h2.638v3.164h3.1v2.27h-3.1v5.65c0 1.026.526 1.442 1.42 1.442a3.55 3.55 0 0 0 1.636-.394v2.16c-.654.372-1.374.59-2.378.59-1.942 0-3.316-.85-3.316-3.382M139.771 164.155l1.18-1.79c1.266.94 2.596 1.418 3.774 1.418 1.134 0 1.79-.478 1.79-1.242v-.044c0-.894-1.222-1.2-2.576-1.614-1.702-.48-3.6-1.18-3.6-3.384v-.042c0-2.182 1.81-3.514 4.102-3.514 1.442 0 3.012.502 4.234 1.31l-1.048 1.876c-1.112-.676-2.292-1.092-3.25-1.092-1.026 0-1.616.482-1.616 1.136v.044c0 .85 1.244 1.2 2.596 1.636 1.682.524 3.58 1.288 3.58 3.36v.044c0 2.422-1.876 3.622-4.278 3.622-1.636 0-3.446-.59-4.888-1.724"/></g></svg>
